<svg xmlns="http://www.w3.org/2000/svg" viewBox="0 0 100 100" role="img">
<title>0.protocol Identity Mark</title>
<style>
@media(prefers-color-scheme:light){:root{--off:#fff;--on:#1f2328}}
@media(prefers-color-scheme:dark){:root{--off:#0d1117;--on:#e6edf3}}
.c{fill:var(--on,#1f2328);shape-rendering:crispEdges}
@keyframes t{0%,100%{opacity:var(--a)}50%{opacity:var(--b)}}
.c{animation:t 8.5s ease-in-out infinite;animation-delay:calc(var(--d,0)*1ms)}
@media(prefers-reduced-motion:reduce){.c{animation:none}}
</style>
<rect width="100" height="100" fill="var(--off,#fff)"/>
<rect class="c" x="0" y="0" width="10" height="10" opacity="0.000" style="--a:0.000;--b:1.000;--d:450"/>
<rect class="c" x="10" y="0" width="10" height="10" opacity="0.000" style="--a:0.000;--b:1.000;--d:450"/>
<rect class="c" x="20" y="0" width="10" height="10" opacity="0.000" style="--a:0.000;--b:1.000;--d:450"/>
<rect class="c" x="30" y="0" width="10" height="10" opacity="0.000" style="--a:0.000;--b:1.000;--d:450"/>
<rect class="c" x="40" y="0" width="10" height="10" opacity="0.000" style="--a:0.000;--b:1.000;--d:450"/>
<rect class="c" x="50" y="0" width="10" height="10" opacity="0.000" style="--a:0.000;--b:1.000;--d:450"/>
<rect class="c" x="60" y="0" width="10" height="10" opacity="0.000" style="--a:0.000;--b:1.000;--d:450"/>
<rect class="c" x="70" y="0" width="10" height="10" opacity="0.000" style="--a:0.000;--b:1.000;--d:450"/>
<rect class="c" x="80" y="0" width="10" height="10" opacity="0.000" style="--a:0.000;--b:1.000;--d:450"/>
<rect class="c" x="90" y="0" width="10" height="10" opacity="0.000" style="--a:0.000;--b:1.000;--d:450"/>
<rect class="c" x="0" y="10" width="10" height="10" opacity="0.000" style="--a:0.000;--b:1.000;--d:450"/>
<rect class="c" x="10" y="10" width="10" height="10" opacity="0.222" style="--a:0.222;--b:0.778;--d:350"/>
<rect class="c" x="20" y="10" width="10" height="10" opacity="0.222" style="--a:0.222;--b:0.778;--d:350"/>
<rect class="c" x="30" y="10" width="10" height="10" opacity="0.222" style="--a:0.222;--b:0.778;--d:350"/>
<rect class="c" x="40" y="10" width="10" height="10" opacity="0.222" style="--a:0.222;--b:0.778;--d:350"/>
<rect class="c" x="50" y="10" width="10" height="10" opacity="0.222" style="--a:0.222;--b:0.778;--d:350"/>
<rect class="c" x="60" y="10" width="10" height="10" opacity="0.222" style="--a:0.222;--b:0.778;--d:350"/>
<rect class="c" x="70" y="10" width="10" height="10" opacity="0.222" style="--a:0.222;--b:0.778;--d:350"/>
<rect class="c" x="80" y="10" width="10" height="10" opacity="0.222" style="--a:0.222;--b:0.778;--d:350"/>
<rect class="c" x="90" y="10" width="10" height="10" opacity="0.000" style="--a:0.000;--b:1.000;--d:450"/>
<rect class="c" x="0" y="20" width="10" height="10" opacity="0.000" style="--a:0.000;--b:1.000;--d:450"/>
<rect class="c" x="10" y="20" width="10" height="10" opacity="0.222" style="--a:0.222;--b:0.778;--d:350"/>
<rect class="c" x="20" y="20" width="10" height="10" opacity="0.444" style="--a:0.444;--b:0.556;--d:250"/>
<rect class="c" x="30" y="20" width="10" height="10" opacity="0.444" style="--a:0.444;--b:0.556;--d:250"/>
<rect class="c" x="40" y="20" width="10" height="10" opacity="0.444" style="--a:0.444;--b:0.556;--d:250"/>
<rect class="c" x="50" y="20" width="10" height="10" opacity="0.444" style="--a:0.444;--b:0.556;--d:250"/>
<rect class="c" x="60" y="20" width="10" height="10" opacity="0.444" style="--a:0.444;--b:0.556;--d:250"/>
<rect class="c" x="70" y="20" width="10" height="10" opacity="0.444" style="--a:0.444;--b:0.556;--d:250"/>
<rect class="c" x="80" y="20" width="10" height="10" opacity="0.222" style="--a:0.222;--b:0.778;--d:350"/>
<rect class="c" x="90" y="20" width="10" height="10" opacity="0.000" style="--a:0.000;--b:1.000;--d:450"/>
<rect class="c" x="0" y="30" width="10" height="10" opacity="0.000" style="--a:0.000;--b:1.000;--d:450"/>
<rect class="c" x="10" y="30" width="10" height="10" opacity="0.222" style="--a:0.222;--b:0.778;--d:350"/>
<rect class="c" x="20" y="30" width="10" height="10" opacity="0.444" style="--a:0.444;--b:0.556;--d:250"/>
<rect class="c" x="30" y="30" width="10" height="10" opacity="0.667" style="--a:0.667;--b:0.333;--d:150"/>
<rect class="c" x="40" y="30" width="10" height="10" opacity="0.667" style="--a:0.667;--b:0.333;--d:150"/>
<rect class="c" x="50" y="30" width="10" height="10" opacity="0.667" style="--a:0.667;--b:0.333;--d:150"/>
<rect class="c" x="60" y="30" width="10" height="10" opacity="0.667" style="--a:0.667;--b:0.333;--d:150"/>
<rect class="c" x="70" y="30" width="10" height="10" opacity="0.444" style="--a:0.444;--b:0.556;--d:250"/>
<rect class="c" x="80" y="30" width="10" height="10" opacity="0.222" style="--a:0.222;--b:0.778;--d:350"/>
<rect class="c" x="90" y="30" width="10" height="10" opacity="0.000" style="--a:0.000;--b:1.000;--d:450"/>
<rect class="c" x="0" y="40" width="10" height="10" opacity="0.000" style="--a:0.000;--b:1.000;--d:450"/>
<rect class="c" x="10" y="40" width="10" height="10" opacity="0.222" style="--a:0.222;--b:0.778;--d:350"/>
<rect class="c" x="20" y="40" width="10" height="10" opacity="0.444" style="--a:0.444;--b:0.556;--d:250"/>
<rect class="c" x="30" y="40" width="10" height="10" opacity="0.667" style="--a:0.667;--b:0.333;--d:150"/>
<rect class="c" x="40" y="40" width="10" height="10" opacity="0.889" style="--a:0.889;--b:0.111;--d:50"/>
<rect class="c" x="50" y="40" width="10" height="10" opacity="0.889" style="--a:0.889;--b:0.111;--d:50"/>
<rect class="c" x="60" y="40" width="10" height="10" opacity="0.667" style="--a:0.667;--b:0.333;--d:150"/>
<rect class="c" x="70" y="40" width="10" height="10" opacity="0.444" style="--a:0.444;--b:0.556;--d:250"/>
<rect class="c" x="80" y="40" width="10" height="10" opacity="0.222" style="--a:0.222;--b:0.778;--d:350"/>
<rect class="c" x="90" y="40" width="10" height="10" opacity="0.000" style="--a:0.000;--b:1.000;--d:450"/>
<rect class="c" x="0" y="50" width="10" height="10" opacity="0.000" style="--a:0.000;--b:1.000;--d:450"/>
<rect class="c" x="10" y="50" width="10" height="10" opacity="0.222" style="--a:0.222;--b:0.778;--d:350"/>
<rect class="c" x="20" y="50" width="10" height="10" opacity="0.444" style="--a:0.444;--b:0.556;--d:250"/>
<rect class="c" x="30" y="50" width="10" height="10" opacity="0.667" style="--a:0.667;--b:0.333;--d:150"/>
<rect class="c" x="40" y="50" width="10" height="10" opacity="0.889" style="--a:0.889;--b:0.111;--d:50"/>
<rect class="c" x="50" y="50" width="10" height="10" opacity="0.889" style="--a:0.889;--b:0.111;--d:50"/>
<rect class="c" x="60" y="50" width="10" height="10" opacity="0.667" style="--a:0.667;--b:0.333;--d:150"/>
<rect class="c" x="70" y="50" width="10" height="10" opacity="0.444" style="--a:0.444;--b:0.556;--d:250"/>
<rect class="c" x="80" y="50" width="10" height="10" opacity="0.222" style="--a:0.222;--b:0.778;--d:350"/>
<rect class="c" x="90" y="50" width="10" height="10" opacity="0.000" style="--a:0.000;--b:1.000;--d:450"/>
<rect class="c" x="0" y="60" width="10" height="10" opacity="0.000" style="--a:0.000;--b:1.000;--d:450"/>
<rect class="c" x="10" y="60" width="10" height="10" opacity="0.222" style="--a:0.222;--b:0.778;--d:350"/>
<rect class="c" x="20" y="60" width="10" height="10" opacity="0.444" style="--a:0.444;--b:0.556;--d:250"/>
<rect class="c" x="30" y="60" width="10" height="10" opacity="0.667" style="--a:0.667;--b:0.333;--d:150"/>
<rect class="c" x="40" y="60" width="10" height="10" opacity="0.667" style="--a:0.667;--b:0.333;--d:150"/>
<rect class="c" x="50" y="60" width="10" height="10" opacity="0.667" style="--a:0.667;--b:0.333;--d:150"/>
<rect class="c" x="60" y="60" width="10" height="10" opacity="0.667" style="--a:0.667;--b:0.333;--d:150"/>
<rect class="c" x="70" y="60" width="10" height="10" opacity="0.444" style="--a:0.444;--b:0.556;--d:250"/>
<rect class="c" x="80" y="60" width="10" height="10" opacity="0.222" style="--a:0.222;--b:0.778;--d:350"/>
<rect class="c" x="90" y="60" width="10" height="10" opacity="0.000" style="--a:0.000;--b:1.000;--d:450"/>
<rect class="c" x="0" y="70" width="10" height="10" opacity="0.000" style="--a:0.000;--b:1.000;--d:450"/>
<rect class="c" x="10" y="70" width="10" height="10" opacity="0.222" style="--a:0.222;--b:0.778;--d:350"/>
<rect class="c" x="20" y="70" width="10" height="10" opacity="0.444" style="--a:0.444;--b:0.556;--d:250"/>
<rect class="c" x="30" y="70" width="10" height="10" opacity="0.444" style="--a:0.444;--b:0.556;--d:250"/>
<rect class="c" x="40" y="70" width="10" height="10" opacity="0.444" style="--a:0.444;--b:0.556;--d:250"/>
<rect class="c" x="50" y="70" width="10" height="10" opacity="0.444" style="--a:0.444;--b:0.556;--d:250"/>
<rect class="c" x="60" y="70" width="10" height="10" opacity="0.444" style="--a:0.444;--b:0.556;--d:250"/>
<rect class="c" x="70" y="70" width="10" height="10" opacity="0.444" style="--a:0.444;--b:0.556;--d:250"/>
<rect class="c" x="80" y="70" width="10" height="10" opacity="0.222" style="--a:0.222;--b:0.778;--d:350"/>
<rect class="c" x="90" y="70" width="10" height="10" opacity="0.000" style="--a:0.000;--b:1.000;--d:450"/>
<rect class="c" x="0" y="80" width="10" height="10" opacity="0.000" style="--a:0.000;--b:1.000;--d:450"/>
<rect class="c" x="10" y="80" width="10" height="10" opacity="0.222" style="--a:0.222;--b:0.778;--d:350"/>
<rect class="c" x="20" y="80" width="10" height="10" opacity="0.222" style="--a:0.222;--b:0.778;--d:350"/>
<rect class="c" x="30" y="80" width="10" height="10" opacity="0.222" style="--a:0.222;--b:0.778;--d:350"/>
<rect class="c" x="40" y="80" width="10" height="10" opacity="0.222" style="--a:0.222;--b:0.778;--d:350"/>
<rect class="c" x="50" y="80" width="10" height="10" opacity="0.222" style="--a:0.222;--b:0.778;--d:350"/>
<rect class="c" x="60" y="80" width="10" height="10" opacity="0.222" style="--a:0.222;--b:0.778;--d:350"/>
<rect class="c" x="70" y="80" width="10" height="10" opacity="0.222" style="--a:0.222;--b:0.778;--d:350"/>
<rect class="c" x="80" y="80" width="10" height="10" opacity="0.222" style="--a:0.222;--b:0.778;--d:350"/>
<rect class="c" x="90" y="80" width="10" height="10" opacity="0.000" style="--a:0.000;--b:1.000;--d:450"/>
<rect class="c" x="0" y="90" width="10" height="10" opacity="0.000" style="--a:0.000;--b:1.000;--d:450"/>
<rect class="c" x="10" y="90" width="10" height="10" opacity="0.000" style="--a:0.000;--b:1.000;--d:450"/>
<rect class="c" x="20" y="90" width="10" height="10" opacity="0.000" style="--a:0.000;--b:1.000;--d:450"/>
<rect class="c" x="30" y="90" width="10" height="10" opacity="0.000" style="--a:0.000;--b:1.000;--d:450"/>
<rect class="c" x="40" y="90" width="10" height="10" opacity="0.000" style="--a:0.000;--b:1.000;--d:450"/>
<rect class="c" x="50" y="90" width="10" height="10" opacity="0.000" style="--a:0.000;--b:1.000;--d:450"/>
<rect class="c" x="60" y="90" width="10" height="10" opacity="0.000" style="--a:0.000;--b:1.000;--d:450"/>
<rect class="c" x="70" y="90" width="10" height="10" opacity="0.000" style="--a:0.000;--b:1.000;--d:450"/>
<rect class="c" x="80" y="90" width="10" height="10" opacity="0.000" style="--a:0.000;--b:1.000;--d:450"/>
<rect class="c" x="90" y="90" width="10" height="10" opacity="0.000" style="--a:0.000;--b:1.000;--d:450"/>
</svg>