<svg xmlns="http://www.w3.org/2000/svg" viewBox="0 0 360 360" role="img">
<title>0.protocol Identity Mark</title>
<style>
:root{--bg:#f6f8fa;--off:#fff;--c0:#ffffff;--c1:#cdcecf;--c2:#9c9da0;--c3:#6a6c70;--c4:#383b40}
@media(prefers-color-scheme:dark){:root{--bg:#161b22;--off:#0d1117;--c0:#0d1117;--c1:#3d4248;--c2:#6d7379;--c3:#9ea4aa;--c4:#ced5db}}
.c{shape-rendering:crispEdges;fill:var(--f)}
.frame{fill:var(--bg)}
.inner{fill:var(--off)}
@keyframes t{0%,100%{fill:var(--a)}50%{fill:var(--b)}}
.c{animation:t 8.5s ease-in-out infinite;animation-delay:calc(var(--d,0)*1ms)}
@media(prefers-reduced-motion:reduce){.c{animation:none}}
</style>
<rect class="frame" x="0.5" y="0.5" width="359" height="359" rx="64" ry="64" fill="#f6f8fa" stroke="#808080" stroke-width="1"/>
<rect class="inner" x="60" y="60" width="240" height="240" rx="38" ry="38" fill="#ffffff"/>
<rect x="60" y="60" width="24" height="24" fill="#ffffff" shape-rendering="crispEdges"/>
<rect x="84" y="60" width="24" height="24" fill="#ffffff" shape-rendering="crispEdges"/>
<rect x="108" y="60" width="24" height="24" fill="#ffffff" shape-rendering="crispEdges"/>
<rect x="132" y="60" width="24" height="24" fill="#ffffff" shape-rendering="crispEdges"/>
<rect x="156" y="60" width="24" height="24" fill="#ffffff" shape-rendering="crispEdges"/>
<rect x="180" y="60" width="24" height="24" fill="#ffffff" shape-rendering="crispEdges"/>
<rect x="204" y="60" width="24" height="24" fill="#ffffff" shape-rendering="crispEdges"/>
<rect x="228" y="60" width="24" height="24" fill="#ffffff" shape-rendering="crispEdges"/>
<rect x="252" y="60" width="24" height="24" fill="#ffffff" shape-rendering="crispEdges"/>
<rect x="276" y="60" width="24" height="24" fill="#ffffff" shape-rendering="crispEdges"/>
<rect x="60" y="84" width="24" height="24" fill="#ffffff" shape-rendering="crispEdges"/>
<rect class="c" x="84" y="84" width="24" height="24" fill="#cdcecf" shape-rendering="crispEdges" style="--f:var(--c1);--a:var(--c1);--b:var(--c3);--d:350"/>
<rect class="c" x="108" y="84" width="24" height="24" fill="#cdcecf" shape-rendering="crispEdges" style="--f:var(--c1);--a:var(--c1);--b:var(--c3);--d:350"/>
<rect class="c" x="132" y="84" width="24" height="24" fill="#cdcecf" shape-rendering="crispEdges" style="--f:var(--c1);--a:var(--c1);--b:var(--c3);--d:350"/>
<rect class="c" x="156" y="84" width="24" height="24" fill="#cdcecf" shape-rendering="crispEdges" style="--f:var(--c1);--a:var(--c1);--b:var(--c3);--d:350"/>
<rect class="c" x="180" y="84" width="24" height="24" fill="#cdcecf" shape-rendering="crispEdges" style="--f:var(--c1);--a:var(--c1);--b:var(--c3);--d:350"/>
<rect class="c" x="204" y="84" width="24" height="24" fill="#cdcecf" shape-rendering="crispEdges" style="--f:var(--c1);--a:var(--c1);--b:var(--c3);--d:350"/>
<rect class="c" x="228" y="84" width="24" height="24" fill="#cdcecf" shape-rendering="crispEdges" style="--f:var(--c1);--a:var(--c1);--b:var(--c3);--d:350"/>
<rect class="c" x="252" y="84" width="24" height="24" fill="#cdcecf" shape-rendering="crispEdges" style="--f:var(--c1);--a:var(--c1);--b:var(--c3);--d:350"/>
<rect x="276" y="84" width="24" height="24" fill="#ffffff" shape-rendering="crispEdges"/>
<rect x="60" y="108" width="24" height="24" fill="#ffffff" shape-rendering="crispEdges"/>
<rect class="c" x="84" y="108" width="24" height="24" fill="#cdcecf" shape-rendering="crispEdges" style="--f:var(--c1);--a:var(--c1);--b:var(--c3);--d:350"/>
<rect class="c" x="108" y="108" width="24" height="24" fill="#9c9da0" shape-rendering="crispEdges" style="--f:var(--c2);--a:var(--c2);--b:var(--c2);--d:250"/>
<rect class="c" x="132" y="108" width="24" height="24" fill="#9c9da0" shape-rendering="crispEdges" style="--f:var(--c2);--a:var(--c2);--b:var(--c2);--d:250"/>
<rect class="c" x="156" y="108" width="24" height="24" fill="#9c9da0" shape-rendering="crispEdges" style="--f:var(--c2);--a:var(--c2);--b:var(--c2);--d:250"/>
<rect class="c" x="180" y="108" width="24" height="24" fill="#9c9da0" shape-rendering="crispEdges" style="--f:var(--c2);--a:var(--c2);--b:var(--c2);--d:250"/>
<rect class="c" x="204" y="108" width="24" height="24" fill="#9c9da0" shape-rendering="crispEdges" style="--f:var(--c2);--a:var(--c2);--b:var(--c2);--d:250"/>
<rect class="c" x="228" y="108" width="24" height="24" fill="#9c9da0" shape-rendering="crispEdges" style="--f:var(--c2);--a:var(--c2);--b:var(--c2);--d:250"/>
<rect class="c" x="252" y="108" width="24" height="24" fill="#cdcecf" shape-rendering="crispEdges" style="--f:var(--c1);--a:var(--c1);--b:var(--c3);--d:350"/>
<rect x="276" y="108" width="24" height="24" fill="#ffffff" shape-rendering="crispEdges"/>
<rect x="60" y="132" width="24" height="24" fill="#ffffff" shape-rendering="crispEdges"/>
<rect class="c" x="84" y="132" width="24" height="24" fill="#cdcecf" shape-rendering="crispEdges" style="--f:var(--c1);--a:var(--c1);--b:var(--c3);--d:350"/>
<rect class="c" x="108" y="132" width="24" height="24" fill="#9c9da0" shape-rendering="crispEdges" style="--f:var(--c2);--a:var(--c2);--b:var(--c2);--d:250"/>
<rect class="c" x="132" y="132" width="24" height="24" fill="#6a6c70" shape-rendering="crispEdges" style="--f:var(--c3);--a:var(--c3);--b:var(--c1);--d:150"/>
<rect class="c" x="156" y="132" width="24" height="24" fill="#6a6c70" shape-rendering="crispEdges" style="--f:var(--c3);--a:var(--c3);--b:var(--c1);--d:150"/>
<rect class="c" x="180" y="132" width="24" height="24" fill="#6a6c70" shape-rendering="crispEdges" style="--f:var(--c3);--a:var(--c3);--b:var(--c1);--d:150"/>
<rect class="c" x="204" y="132" width="24" height="24" fill="#6a6c70" shape-rendering="crispEdges" style="--f:var(--c3);--a:var(--c3);--b:var(--c1);--d:150"/>
<rect class="c" x="228" y="132" width="24" height="24" fill="#9c9da0" shape-rendering="crispEdges" style="--f:var(--c2);--a:var(--c2);--b:var(--c2);--d:250"/>
<rect class="c" x="252" y="132" width="24" height="24" fill="#cdcecf" shape-rendering="crispEdges" style="--f:var(--c1);--a:var(--c1);--b:var(--c3);--d:350"/>
<rect x="276" y="132" width="24" height="24" fill="#ffffff" shape-rendering="crispEdges"/>
<rect x="60" y="156" width="24" height="24" fill="#ffffff" shape-rendering="crispEdges"/>
<rect class="c" x="84" y="156" width="24" height="24" fill="#cdcecf" shape-rendering="crispEdges" style="--f:var(--c1);--a:var(--c1);--b:var(--c3);--d:350"/>
<rect class="c" x="108" y="156" width="24" height="24" fill="#9c9da0" shape-rendering="crispEdges" style="--f:var(--c2);--a:var(--c2);--b:var(--c2);--d:250"/>
<rect class="c" x="132" y="156" width="24" height="24" fill="#6a6c70" shape-rendering="crispEdges" style="--f:var(--c3);--a:var(--c3);--b:var(--c1);--d:150"/>
<rect class="c" x="156" y="156" width="24" height="24" fill="#383b40" shape-rendering="crispEdges" style="--f:var(--c4);--a:var(--c4);--b:var(--c0);--d:50"/>
<rect class="c" x="180" y="156" width="24" height="24" fill="#383b40" shape-rendering="crispEdges" style="--f:var(--c4);--a:var(--c4);--b:var(--c0);--d:50"/>
<rect class="c" x="204" y="156" width="24" height="24" fill="#6a6c70" shape-rendering="crispEdges" style="--f:var(--c3);--a:var(--c3);--b:var(--c1);--d:150"/>
<rect class="c" x="228" y="156" width="24" height="24" fill="#9c9da0" shape-rendering="crispEdges" style="--f:var(--c2);--a:var(--c2);--b:var(--c2);--d:250"/>
<rect class="c" x="252" y="156" width="24" height="24" fill="#cdcecf" shape-rendering="crispEdges" style="--f:var(--c1);--a:var(--c1);--b:var(--c3);--d:350"/>
<rect x="276" y="156" width="24" height="24" fill="#ffffff" shape-rendering="crispEdges"/>
<rect x="60" y="180" width="24" height="24" fill="#ffffff" shape-rendering="crispEdges"/>
<rect class="c" x="84" y="180" width="24" height="24" fill="#cdcecf" shape-rendering="crispEdges" style="--f:var(--c1);--a:var(--c1);--b:var(--c3);--d:350"/>
<rect class="c" x="108" y="180" width="24" height="24" fill="#9c9da0" shape-rendering="crispEdges" style="--f:var(--c2);--a:var(--c2);--b:var(--c2);--d:250"/>
<rect class="c" x="132" y="180" width="24" height="24" fill="#6a6c70" shape-rendering="crispEdges" style="--f:var(--c3);--a:var(--c3);--b:var(--c1);--d:150"/>
<rect class="c" x="156" y="180" width="24" height="24" fill="#383b40" shape-rendering="crispEdges" style="--f:var(--c4);--a:var(--c4);--b:var(--c0);--d:50"/>
<rect class="c" x="180" y="180" width="24" height="24" fill="#383b40" shape-rendering="crispEdges" style="--f:var(--c4);--a:var(--c4);--b:var(--c0);--d:50"/>
<rect class="c" x="204" y="180" width="24" height="24" fill="#6a6c70" shape-rendering="crispEdges" style="--f:var(--c3);--a:var(--c3);--b:var(--c1);--d:150"/>
<rect class="c" x="228" y="180" width="24" height="24" fill="#9c9da0" shape-rendering="crispEdges" style="--f:var(--c2);--a:var(--c2);--b:var(--c2);--d:250"/>
<rect class="c" x="252" y="180" width="24" height="24" fill="#cdcecf" shape-rendering="crispEdges" style="--f:var(--c1);--a:var(--c1);--b:var(--c3);--d:350"/>
<rect x="276" y="180" width="24" height="24" fill="#ffffff" shape-rendering="crispEdges"/>
<rect x="60" y="204" width="24" height="24" fill="#ffffff" shape-rendering="crispEdges"/>
<rect class="c" x="84" y="204" width="24" height="24" fill="#cdcecf" shape-rendering="crispEdges" style="--f:var(--c1);--a:var(--c1);--b:var(--c3);--d:350"/>
<rect class="c" x="108" y="204" width="24" height="24" fill="#9c9da0" shape-rendering="crispEdges" style="--f:var(--c2);--a:var(--c2);--b:var(--c2);--d:250"/>
<rect class="c" x="132" y="204" width="24" height="24" fill="#6a6c70" shape-rendering="crispEdges" style="--f:var(--c3);--a:var(--c3);--b:var(--c1);--d:150"/>
<rect class="c" x="156" y="204" width="24" height="24" fill="#6a6c70" shape-rendering="crispEdges" style="--f:var(--c3);--a:var(--c3);--b:var(--c1);--d:150"/>
<rect class="c" x="180" y="204" width="24" height="24" fill="#6a6c70" shape-rendering="crispEdges" style="--f:var(--c3);--a:var(--c3);--b:var(--c1);--d:150"/>
<rect class="c" x="204" y="204" width="24" height="24" fill="#6a6c70" shape-rendering="crispEdges" style="--f:var(--c3);--a:var(--c3);--b:var(--c1);--d:150"/>
<rect class="c" x="228" y="204" width="24" height="24" fill="#9c9da0" shape-rendering="crispEdges" style="--f:var(--c2);--a:var(--c2);--b:var(--c2);--d:250"/>
<rect class="c" x="252" y="204" width="24" height="24" fill="#cdcecf" shape-rendering="crispEdges" style="--f:var(--c1);--a:var(--c1);--b:var(--c3);--d:350"/>
<rect x="276" y="204" width="24" height="24" fill="#ffffff" shape-rendering="crispEdges"/>
<rect x="60" y="228" width="24" height="24" fill="#ffffff" shape-rendering="crispEdges"/>
<rect class="c" x="84" y="228" width="24" height="24" fill="#cdcecf" shape-rendering="crispEdges" style="--f:var(--c1);--a:var(--c1);--b:var(--c3);--d:350"/>
<rect class="c" x="108" y="228" width="24" height="24" fill="#9c9da0" shape-rendering="crispEdges" style="--f:var(--c2);--a:var(--c2);--b:var(--c2);--d:250"/>
<rect class="c" x="132" y="228" width="24" height="24" fill="#9c9da0" shape-rendering="crispEdges" style="--f:var(--c2);--a:var(--c2);--b:var(--c2);--d:250"/>
<rect class="c" x="156" y="228" width="24" height="24" fill="#9c9da0" shape-rendering="crispEdges" style="--f:var(--c2);--a:var(--c2);--b:var(--c2);--d:250"/>
<rect class="c" x="180" y="228" width="24" height="24" fill="#9c9da0" shape-rendering="crispEdges" style="--f:var(--c2);--a:var(--c2);--b:var(--c2);--d:250"/>
<rect class="c" x="204" y="228" width="24" height="24" fill="#9c9da0" shape-rendering="crispEdges" style="--f:var(--c2);--a:var(--c2);--b:var(--c2);--d:250"/>
<rect class="c" x="228" y="228" width="24" height="24" fill="#9c9da0" shape-rendering="crispEdges" style="--f:var(--c2);--a:var(--c2);--b:var(--c2);--d:250"/>
<rect class="c" x="252" y="228" width="24" height="24" fill="#cdcecf" shape-rendering="crispEdges" style="--f:var(--c1);--a:var(--c1);--b:var(--c3);--d:350"/>
<rect x="276" y="228" width="24" height="24" fill="#ffffff" shape-rendering="crispEdges"/>
<rect x="60" y="252" width="24" height="24" fill="#ffffff" shape-rendering="crispEdges"/>
<rect class="c" x="84" y="252" width="24" height="24" fill="#cdcecf" shape-rendering="crispEdges" style="--f:var(--c1);--a:var(--c1);--b:var(--c3);--d:350"/>
<rect class="c" x="108" y="252" width="24" height="24" fill="#cdcecf" shape-rendering="crispEdges" style="--f:var(--c1);--a:var(--c1);--b:var(--c3);--d:350"/>
<rect class="c" x="132" y="252" width="24" height="24" fill="#cdcecf" shape-rendering="crispEdges" style="--f:var(--c1);--a:var(--c1);--b:var(--c3);--d:350"/>
<rect class="c" x="156" y="252" width="24" height="24" fill="#cdcecf" shape-rendering="crispEdges" style="--f:var(--c1);--a:var(--c1);--b:var(--c3);--d:350"/>
<rect class="c" x="180" y="252" width="24" height="24" fill="#cdcecf" shape-rendering="crispEdges" style="--f:var(--c1);--a:var(--c1);--b:var(--c3);--d:350"/>
<rect class="c" x="204" y="252" width="24" height="24" fill="#cdcecf" shape-rendering="crispEdges" style="--f:var(--c1);--a:var(--c1);--b:var(--c3);--d:350"/>
<rect class="c" x="228" y="252" width="24" height="24" fill="#cdcecf" shape-rendering="crispEdges" style="--f:var(--c1);--a:var(--c1);--b:var(--c3);--d:350"/>
<rect class="c" x="252" y="252" width="24" height="24" fill="#cdcecf" shape-rendering="crispEdges" style="--f:var(--c1);--a:var(--c1);--b:var(--c3);--d:350"/>
<rect x="276" y="252" width="24" height="24" fill="#ffffff" shape-rendering="crispEdges"/>
<rect x="60" y="276" width="24" height="24" fill="#ffffff" shape-rendering="crispEdges"/>
<rect x="84" y="276" width="24" height="24" fill="#ffffff" shape-rendering="crispEdges"/>
<rect x="108" y="276" width="24" height="24" fill="#ffffff" shape-rendering="crispEdges"/>
<rect x="132" y="276" width="24" height="24" fill="#ffffff" shape-rendering="crispEdges"/>
<rect x="156" y="276" width="24" height="24" fill="#ffffff" shape-rendering="crispEdges"/>
<rect x="180" y="276" width="24" height="24" fill="#ffffff" shape-rendering="crispEdges"/>
<rect x="204" y="276" width="24" height="24" fill="#ffffff" shape-rendering="crispEdges"/>
<rect x="228" y="276" width="24" height="24" fill="#ffffff" shape-rendering="crispEdges"/>
<rect x="252" y="276" width="24" height="24" fill="#ffffff" shape-rendering="crispEdges"/>
<rect x="276" y="276" width="24" height="24" fill="#ffffff" shape-rendering="crispEdges"/>
</svg>
