<svg xmlns="http://www.w3.org/2000/svg" viewBox="0 0 380 380" role="img">
<title>0.protocol Identity Mark</title>
<style>
@media(prefers-color-scheme:light){:root{--off:#fff;--on:#1f2328;--bg:#f6f8fa}}
@media(prefers-color-scheme:dark){:root{--off:#0d1117;--on:#e6edf3;--bg:#161b22}}
.c{fill:var(--on,#1f2328);shape-rendering:crispEdges}
@keyframes t{0%,100%{opacity:var(--a)}50%{opacity:var(--b)}}
.c{animation:t 8.5s ease-in-out infinite;animation-delay:calc(var(--d,0)*1ms)}
@media(prefers-reduced-motion:reduce){.c{animation:none}}
</style>
<rect width="380" height="380" rx="12" ry="12" fill="#838383"/>
<rect x="1" y="1" width="378" height="378" rx="11" ry="11" fill="var(--bg,#f6f8fa)"/>
<rect x="10" y="10" width="360" height="360" fill="var(--off,#fff)"/>
<rect class="c" x="10" y="10" width="36" height="36" opacity="0.000" style="--a:0.000;--b:1.000;--d:450"/>
<rect class="c" x="46" y="10" width="36" height="36" opacity="0.000" style="--a:0.000;--b:1.000;--d:450"/>
<rect class="c" x="82" y="10" width="36" height="36" opacity="0.000" style="--a:0.000;--b:1.000;--d:450"/>
<rect class="c" x="118" y="10" width="36" height="36" opacity="0.000" style="--a:0.000;--b:1.000;--d:450"/>
<rect class="c" x="154" y="10" width="36" height="36" opacity="0.000" style="--a:0.000;--b:1.000;--d:450"/>
<rect class="c" x="190" y="10" width="36" height="36" opacity="0.000" style="--a:0.000;--b:1.000;--d:450"/>
<rect class="c" x="226" y="10" width="36" height="36" opacity="0.000" style="--a:0.000;--b:1.000;--d:450"/>
<rect class="c" x="262" y="10" width="36" height="36" opacity="0.000" style="--a:0.000;--b:1.000;--d:450"/>
<rect class="c" x="298" y="10" width="36" height="36" opacity="0.000" style="--a:0.000;--b:1.000;--d:450"/>
<rect class="c" x="334" y="10" width="36" height="36" opacity="0.000" style="--a:0.000;--b:1.000;--d:450"/>
<rect class="c" x="10" y="46" width="36" height="36" opacity="0.000" style="--a:0.000;--b:1.000;--d:450"/>
<rect class="c" x="46" y="46" width="36" height="36" opacity="0.222" style="--a:0.222;--b:0.778;--d:350"/>
<rect class="c" x="82" y="46" width="36" height="36" opacity="0.222" style="--a:0.222;--b:0.778;--d:350"/>
<rect class="c" x="118" y="46" width="36" height="36" opacity="0.222" style="--a:0.222;--b:0.778;--d:350"/>
<rect class="c" x="154" y="46" width="36" height="36" opacity="0.222" style="--a:0.222;--b:0.778;--d:350"/>
<rect class="c" x="190" y="46" width="36" height="36" opacity="0.222" style="--a:0.222;--b:0.778;--d:350"/>
<rect class="c" x="226" y="46" width="36" height="36" opacity="0.222" style="--a:0.222;--b:0.778;--d:350"/>
<rect class="c" x="262" y="46" width="36" height="36" opacity="0.222" style="--a:0.222;--b:0.778;--d:350"/>
<rect class="c" x="298" y="46" width="36" height="36" opacity="0.222" style="--a:0.222;--b:0.778;--d:350"/>
<rect class="c" x="334" y="46" width="36" height="36" opacity="0.000" style="--a:0.000;--b:1.000;--d:450"/>
<rect class="c" x="10" y="82" width="36" height="36" opacity="0.000" style="--a:0.000;--b:1.000;--d:450"/>
<rect class="c" x="46" y="82" width="36" height="36" opacity="0.222" style="--a:0.222;--b:0.778;--d:350"/>
<rect class="c" x="82" y="82" width="36" height="36" opacity="0.444" style="--a:0.444;--b:0.556;--d:250"/>
<rect class="c" x="118" y="82" width="36" height="36" opacity="0.444" style="--a:0.444;--b:0.556;--d:250"/>
<rect class="c" x="154" y="82" width="36" height="36" opacity="0.444" style="--a:0.444;--b:0.556;--d:250"/>
<rect class="c" x="190" y="82" width="36" height="36" opacity="0.444" style="--a:0.444;--b:0.556;--d:250"/>
<rect class="c" x="226" y="82" width="36" height="36" opacity="0.444" style="--a:0.444;--b:0.556;--d:250"/>
<rect class="c" x="262" y="82" width="36" height="36" opacity="0.444" style="--a:0.444;--b:0.556;--d:250"/>
<rect class="c" x="298" y="82" width="36" height="36" opacity="0.222" style="--a:0.222;--b:0.778;--d:350"/>
<rect class="c" x="334" y="82" width="36" height="36" opacity="0.000" style="--a:0.000;--b:1.000;--d:450"/>
<rect class="c" x="10" y="118" width="36" height="36" opacity="0.000" style="--a:0.000;--b:1.000;--d:450"/>
<rect class="c" x="46" y="118" width="36" height="36" opacity="0.222" style="--a:0.222;--b:0.778;--d:350"/>
<rect class="c" x="82" y="118" width="36" height="36" opacity="0.444" style="--a:0.444;--b:0.556;--d:250"/>
<rect class="c" x="118" y="118" width="36" height="36" opacity="0.667" style="--a:0.667;--b:0.333;--d:150"/>
<rect class="c" x="154" y="118" width="36" height="36" opacity="0.667" style="--a:0.667;--b:0.333;--d:150"/>
<rect class="c" x="190" y="118" width="36" height="36" opacity="0.667" style="--a:0.667;--b:0.333;--d:150"/>
<rect class="c" x="226" y="118" width="36" height="36" opacity="0.667" style="--a:0.667;--b:0.333;--d:150"/>
<rect class="c" x="262" y="118" width="36" height="36" opacity="0.444" style="--a:0.444;--b:0.556;--d:250"/>
<rect class="c" x="298" y="118" width="36" height="36" opacity="0.222" style="--a:0.222;--b:0.778;--d:350"/>
<rect class="c" x="334" y="118" width="36" height="36" opacity="0.000" style="--a:0.000;--b:1.000;--d:450"/>
<rect class="c" x="10" y="154" width="36" height="36" opacity="0.000" style="--a:0.000;--b:1.000;--d:450"/>
<rect class="c" x="46" y="154" width="36" height="36" opacity="0.222" style="--a:0.222;--b:0.778;--d:350"/>
<rect class="c" x="82" y="154" width="36" height="36" opacity="0.444" style="--a:0.444;--b:0.556;--d:250"/>
<rect class="c" x="118" y="154" width="36" height="36" opacity="0.667" style="--a:0.667;--b:0.333;--d:150"/>
<rect class="c" x="154" y="154" width="36" height="36" opacity="0.889" style="--a:0.889;--b:0.111;--d:50"/>
<rect class="c" x="190" y="154" width="36" height="36" opacity="0.889" style="--a:0.889;--b:0.111;--d:50"/>
<rect class="c" x="226" y="154" width="36" height="36" opacity="0.667" style="--a:0.667;--b:0.333;--d:150"/>
<rect class="c" x="262" y="154" width="36" height="36" opacity="0.444" style="--a:0.444;--b:0.556;--d:250"/>
<rect class="c" x="298" y="154" width="36" height="36" opacity="0.222" style="--a:0.222;--b:0.778;--d:350"/>
<rect class="c" x="334" y="154" width="36" height="36" opacity="0.000" style="--a:0.000;--b:1.000;--d:450"/>
<rect class="c" x="10" y="190" width="36" height="36" opacity="0.000" style="--a:0.000;--b:1.000;--d:450"/>
<rect class="c" x="46" y="190" width="36" height="36" opacity="0.222" style="--a:0.222;--b:0.778;--d:350"/>
<rect class="c" x="82" y="190" width="36" height="36" opacity="0.444" style="--a:0.444;--b:0.556;--d:250"/>
<rect class="c" x="118" y="190" width="36" height="36" opacity="0.667" style="--a:0.667;--b:0.333;--d:150"/>
<rect class="c" x="154" y="190" width="36" height="36" opacity="0.889" style="--a:0.889;--b:0.111;--d:50"/>
<rect class="c" x="190" y="190" width="36" height="36" opacity="0.889" style="--a:0.889;--b:0.111;--d:50"/>
<rect class="c" x="226" y="190" width="36" height="36" opacity="0.667" style="--a:0.667;--b:0.333;--d:150"/>
<rect class="c" x="262" y="190" width="36" height="36" opacity="0.444" style="--a:0.444;--b:0.556;--d:250"/>
<rect class="c" x="298" y="190" width="36" height="36" opacity="0.222" style="--a:0.222;--b:0.778;--d:350"/>
<rect class="c" x="334" y="190" width="36" height="36" opacity="0.000" style="--a:0.000;--b:1.000;--d:450"/>
<rect class="c" x="10" y="226" width="36" height="36" opacity="0.000" style="--a:0.000;--b:1.000;--d:450"/>
<rect class="c" x="46" y="226" width="36" height="36" opacity="0.222" style="--a:0.222;--b:0.778;--d:350"/>
<rect class="c" x="82" y="226" width="36" height="36" opacity="0.444" style="--a:0.444;--b:0.556;--d:250"/>
<rect class="c" x="118" y="226" width="36" height="36" opacity="0.667" style="--a:0.667;--b:0.333;--d:150"/>
<rect class="c" x="154" y="226" width="36" height="36" opacity="0.667" style="--a:0.667;--b:0.333;--d:150"/>
<rect class="c" x="190" y="226" width="36" height="36" opacity="0.667" style="--a:0.667;--b:0.333;--d:150"/>
<rect class="c" x="226" y="226" width="36" height="36" opacity="0.667" style="--a:0.667;--b:0.333;--d:150"/>
<rect class="c" x="262" y="226" width="36" height="36" opacity="0.444" style="--a:0.444;--b:0.556;--d:250"/>
<rect class="c" x="298" y="226" width="36" height="36" opacity="0.222" style="--a:0.222;--b:0.778;--d:350"/>
<rect class="c" x="334" y="226" width="36" height="36" opacity="0.000" style="--a:0.000;--b:1.000;--d:450"/>
<rect class="c" x="10" y="262" width="36" height="36" opacity="0.000" style="--a:0.000;--b:1.000;--d:450"/>
<rect class="c" x="46" y="262" width="36" height="36" opacity="0.222" style="--a:0.222;--b:0.778;--d:350"/>
<rect class="c" x="82" y="262" width="36" height="36" opacity="0.444" style="--a:0.444;--b:0.556;--d:250"/>
<rect class="c" x="118" y="262" width="36" height="36" opacity="0.444" style="--a:0.444;--b:0.556;--d:250"/>
<rect class="c" x="154" y="262" width="36" height="36" opacity="0.444" style="--a:0.444;--b:0.556;--d:250"/>
<rect class="c" x="190" y="262" width="36" height="36" opacity="0.444" style="--a:0.444;--b:0.556;--d:250"/>
<rect class="c" x="226" y="262" width="36" height="36" opacity="0.444" style="--a:0.444;--b:0.556;--d:250"/>
<rect class="c" x="262" y="262" width="36" height="36" opacity="0.444" style="--a:0.444;--b:0.556;--d:250"/>
<rect class="c" x="298" y="262" width="36" height="36" opacity="0.222" style="--a:0.222;--b:0.778;--d:350"/>
<rect class="c" x="334" y="262" width="36" height="36" opacity="0.000" style="--a:0.000;--b:1.000;--d:450"/>
<rect class="c" x="10" y="298" width="36" height="36" opacity="0.000" style="--a:0.000;--b:1.000;--d:450"/>
<rect class="c" x="46" y="298" width="36" height="36" opacity="0.222" style="--a:0.222;--b:0.778;--d:350"/>
<rect class="c" x="82" y="298" width="36" height="36" opacity="0.222" style="--a:0.222;--b:0.778;--d:350"/>
<rect class="c" x="118" y="298" width="36" height="36" opacity="0.222" style="--a:0.222;--b:0.778;--d:350"/>
<rect class="c" x="154" y="298" width="36" height="36" opacity="0.222" style="--a:0.222;--b:0.778;--d:350"/>
<rect class="c" x="190" y="298" width="36" height="36" opacity="0.222" style="--a:0.222;--b:0.778;--d:350"/>
<rect class="c" x="226" y="298" width="36" height="36" opacity="0.222" style="--a:0.222;--b:0.778;--d:350"/>
<rect class="c" x="262" y="298" width="36" height="36" opacity="0.222" style="--a:0.222;--b:0.778;--d:350"/>
<rect class="c" x="298" y="298" width="36" height="36" opacity="0.222" style="--a:0.222;--b:0.778;--d:350"/>
<rect class="c" x="334" y="298" width="36" height="36" opacity="0.000" style="--a:0.000;--b:1.000;--d:450"/>
<rect class="c" x="10" y="334" width="36" height="36" opacity="0.000" style="--a:0.000;--b:1.000;--d:450"/>
<rect class="c" x="46" y="334" width="36" height="36" opacity="0.000" style="--a:0.000;--b:1.000;--d:450"/>
<rect class="c" x="82" y="334" width="36" height="36" opacity="0.000" style="--a:0.000;--b:1.000;--d:450"/>
<rect class="c" x="118" y="334" width="36" height="36" opacity="0.000" style="--a:0.000;--b:1.000;--d:450"/>
<rect class="c" x="154" y="334" width="36" height="36" opacity="0.000" style="--a:0.000;--b:1.000;--d:450"/>
<rect class="c" x="190" y="334" width="36" height="36" opacity="0.000" style="--a:0.000;--b:1.000;--d:450"/>
<rect class="c" x="226" y="334" width="36" height="36" opacity="0.000" style="--a:0.000;--b:1.000;--d:450"/>
<rect class="c" x="262" y="334" width="36" height="36" opacity="0.000" style="--a:0.000;--b:1.000;--d:450"/>
<rect class="c" x="298" y="334" width="36" height="36" opacity="0.000" style="--a:0.000;--b:1.000;--d:450"/>
<rect class="c" x="334" y="334" width="36" height="36" opacity="0.000" style="--a:0.000;--b:1.000;--d:450"/>
</svg>
