<svg xmlns="http://www.w3.org/2000/svg" viewBox="0 0 380 380" role="img">
<title>0.protocol Identity Mark</title>
<style>
@media(prefers-color-scheme:light){:root{--off:#fff;--on:#1f2328;--bg:#f6f8fa}}
@media(prefers-color-scheme:dark){:root{--off:#0d1117;--on:#e6edf3;--bg:#161b22}}
.c{fill:var(--on,#1f2328);shape-rendering:crispEdges}
@keyframes t{0%,100%{opacity:var(--a)}50%{opacity:var(--b)}}
.c{animation:t 8.5s ease-in-out infinite;animation-delay:calc(var(--d,0)*1ms)}
@media(prefers-reduced-motion:reduce){.c{animation:none}}
</style>
<rect width="380" height="380" rx="12" ry="12" fill="#838383"/>
<rect x="1" y="1" width="378" height="378" rx="11" ry="11" fill="var(--bg,#f6f8fa)"/>
<rect x="-10" y="-10" width="400" height="400" fill="var(--off,#fff)"/>
<rect class="c" x="-10" y="-10" width="40" height="40" opacity="0.000" style="--a:0.000;--b:1.000;--d:450"/>
<rect class="c" x="30" y="-10" width="40" height="40" opacity="0.000" style="--a:0.000;--b:1.000;--d:450"/>
<rect class="c" x="70" y="-10" width="40" height="40" opacity="0.000" style="--a:0.000;--b:1.000;--d:450"/>
<rect class="c" x="110" y="-10" width="40" height="40" opacity="0.000" style="--a:0.000;--b:1.000;--d:450"/>
<rect class="c" x="150" y="-10" width="40" height="40" opacity="0.000" style="--a:0.000;--b:1.000;--d:450"/>
<rect class="c" x="190" y="-10" width="40" height="40" opacity="0.000" style="--a:0.000;--b:1.000;--d:450"/>
<rect class="c" x="230" y="-10" width="40" height="40" opacity="0.000" style="--a:0.000;--b:1.000;--d:450"/>
<rect class="c" x="270" y="-10" width="40" height="40" opacity="0.000" style="--a:0.000;--b:1.000;--d:450"/>
<rect class="c" x="310" y="-10" width="40" height="40" opacity="0.000" style="--a:0.000;--b:1.000;--d:450"/>
<rect class="c" x="350" y="-10" width="40" height="40" opacity="0.000" style="--a:0.000;--b:1.000;--d:450"/>
<rect class="c" x="-10" y="30" width="40" height="40" opacity="0.000" style="--a:0.000;--b:1.000;--d:450"/>
<rect class="c" x="30" y="30" width="40" height="40" opacity="0.222" style="--a:0.222;--b:0.778;--d:350"/>
<rect class="c" x="70" y="30" width="40" height="40" opacity="0.222" style="--a:0.222;--b:0.778;--d:350"/>
<rect class="c" x="110" y="30" width="40" height="40" opacity="0.222" style="--a:0.222;--b:0.778;--d:350"/>
<rect class="c" x="150" y="30" width="40" height="40" opacity="0.222" style="--a:0.222;--b:0.778;--d:350"/>
<rect class="c" x="190" y="30" width="40" height="40" opacity="0.222" style="--a:0.222;--b:0.778;--d:350"/>
<rect class="c" x="230" y="30" width="40" height="40" opacity="0.222" style="--a:0.222;--b:0.778;--d:350"/>
<rect class="c" x="270" y="30" width="40" height="40" opacity="0.222" style="--a:0.222;--b:0.778;--d:350"/>
<rect class="c" x="310" y="30" width="40" height="40" opacity="0.222" style="--a:0.222;--b:0.778;--d:350"/>
<rect class="c" x="350" y="30" width="40" height="40" opacity="0.000" style="--a:0.000;--b:1.000;--d:450"/>
<rect class="c" x="-10" y="70" width="40" height="40" opacity="0.000" style="--a:0.000;--b:1.000;--d:450"/>
<rect class="c" x="30" y="70" width="40" height="40" opacity="0.222" style="--a:0.222;--b:0.778;--d:350"/>
<rect class="c" x="70" y="70" width="40" height="40" opacity="0.444" style="--a:0.444;--b:0.556;--d:250"/>
<rect class="c" x="110" y="70" width="40" height="40" opacity="0.444" style="--a:0.444;--b:0.556;--d:250"/>
<rect class="c" x="150" y="70" width="40" height="40" opacity="0.444" style="--a:0.444;--b:0.556;--d:250"/>
<rect class="c" x="190" y="70" width="40" height="40" opacity="0.444" style="--a:0.444;--b:0.556;--d:250"/>
<rect class="c" x="230" y="70" width="40" height="40" opacity="0.444" style="--a:0.444;--b:0.556;--d:250"/>
<rect class="c" x="270" y="70" width="40" height="40" opacity="0.444" style="--a:0.444;--b:0.556;--d:250"/>
<rect class="c" x="310" y="70" width="40" height="40" opacity="0.222" style="--a:0.222;--b:0.778;--d:350"/>
<rect class="c" x="350" y="70" width="40" height="40" opacity="0.000" style="--a:0.000;--b:1.000;--d:450"/>
<rect class="c" x="-10" y="110" width="40" height="40" opacity="0.000" style="--a:0.000;--b:1.000;--d:450"/>
<rect class="c" x="30" y="110" width="40" height="40" opacity="0.222" style="--a:0.222;--b:0.778;--d:350"/>
<rect class="c" x="70" y="110" width="40" height="40" opacity="0.444" style="--a:0.444;--b:0.556;--d:250"/>
<rect class="c" x="110" y="110" width="40" height="40" opacity="0.667" style="--a:0.667;--b:0.333;--d:150"/>
<rect class="c" x="150" y="110" width="40" height="40" opacity="0.667" style="--a:0.667;--b:0.333;--d:150"/>
<rect class="c" x="190" y="110" width="40" height="40" opacity="0.667" style="--a:0.667;--b:0.333;--d:150"/>
<rect class="c" x="230" y="110" width="40" height="40" opacity="0.667" style="--a:0.667;--b:0.333;--d:150"/>
<rect class="c" x="270" y="110" width="40" height="40" opacity="0.444" style="--a:0.444;--b:0.556;--d:250"/>
<rect class="c" x="310" y="110" width="40" height="40" opacity="0.222" style="--a:0.222;--b:0.778;--d:350"/>
<rect class="c" x="350" y="110" width="40" height="40" opacity="0.000" style="--a:0.000;--b:1.000;--d:450"/>
<rect class="c" x="-10" y="150" width="40" height="40" opacity="0.000" style="--a:0.000;--b:1.000;--d:450"/>
<rect class="c" x="30" y="150" width="40" height="40" opacity="0.222" style="--a:0.222;--b:0.778;--d:350"/>
<rect class="c" x="70" y="150" width="40" height="40" opacity="0.444" style="--a:0.444;--b:0.556;--d:250"/>
<rect class="c" x="110" y="150" width="40" height="40" opacity="0.667" style="--a:0.667;--b:0.333;--d:150"/>
<rect class="c" x="150" y="150" width="40" height="40" opacity="0.889" style="--a:0.889;--b:0.111;--d:50"/>
<rect class="c" x="190" y="150" width="40" height="40" opacity="0.889" style="--a:0.889;--b:0.111;--d:50"/>
<rect class="c" x="230" y="150" width="40" height="40" opacity="0.667" style="--a:0.667;--b:0.333;--d:150"/>
<rect class="c" x="270" y="150" width="40" height="40" opacity="0.444" style="--a:0.444;--b:0.556;--d:250"/>
<rect class="c" x="310" y="150" width="40" height="40" opacity="0.222" style="--a:0.222;--b:0.778;--d:350"/>
<rect class="c" x="350" y="150" width="40" height="40" opacity="0.000" style="--a:0.000;--b:1.000;--d:450"/>
<rect class="c" x="-10" y="190" width="40" height="40" opacity="0.000" style="--a:0.000;--b:1.000;--d:450"/>
<rect class="c" x="30" y="190" width="40" height="40" opacity="0.222" style="--a:0.222;--b:0.778;--d:350"/>
<rect class="c" x="70" y="190" width="40" height="40" opacity="0.444" style="--a:0.444;--b:0.556;--d:250"/>
<rect class="c" x="110" y="190" width="40" height="40" opacity="0.667" style="--a:0.667;--b:0.333;--d:150"/>
<rect class="c" x="150" y="190" width="40" height="40" opacity="0.889" style="--a:0.889;--b:0.111;--d:50"/>
<rect class="c" x="190" y="190" width="40" height="40" opacity="0.889" style="--a:0.889;--b:0.111;--d:50"/>
<rect class="c" x="230" y="190" width="40" height="40" opacity="0.667" style="--a:0.667;--b:0.333;--d:150"/>
<rect class="c" x="270" y="190" width="40" height="40" opacity="0.444" style="--a:0.444;--b:0.556;--d:250"/>
<rect class="c" x="310" y="190" width="40" height="40" opacity="0.222" style="--a:0.222;--b:0.778;--d:350"/>
<rect class="c" x="350" y="190" width="40" height="40" opacity="0.000" style="--a:0.000;--b:1.000;--d:450"/>
<rect class="c" x="-10" y="230" width="40" height="40" opacity="0.000" style="--a:0.000;--b:1.000;--d:450"/>
<rect class="c" x="30" y="230" width="40" height="40" opacity="0.222" style="--a:0.222;--b:0.778;--d:350"/>
<rect class="c" x="70" y="230" width="40" height="40" opacity="0.444" style="--a:0.444;--b:0.556;--d:250"/>
<rect class="c" x="110" y="230" width="40" height="40" opacity="0.667" style="--a:0.667;--b:0.333;--d:150"/>
<rect class="c" x="150" y="230" width="40" height="40" opacity="0.667" style="--a:0.667;--b:0.333;--d:150"/>
<rect class="c" x="190" y="230" width="40" height="40" opacity="0.667" style="--a:0.667;--b:0.333;--d:150"/>
<rect class="c" x="230" y="230" width="40" height="40" opacity="0.667" style="--a:0.667;--b:0.333;--d:150"/>
<rect class="c" x="270" y="230" width="40" height="40" opacity="0.444" style="--a:0.444;--b:0.556;--d:250"/>
<rect class="c" x="310" y="230" width="40" height="40" opacity="0.222" style="--a:0.222;--b:0.778;--d:350"/>
<rect class="c" x="350" y="230" width="40" height="40" opacity="0.000" style="--a:0.000;--b:1.000;--d:450"/>
<rect class="c" x="-10" y="270" width="40" height="40" opacity="0.000" style="--a:0.000;--b:1.000;--d:450"/>
<rect class="c" x="30" y="270" width="40" height="40" opacity="0.222" style="--a:0.222;--b:0.778;--d:350"/>
<rect class="c" x="70" y="270" width="40" height="40" opacity="0.444" style="--a:0.444;--b:0.556;--d:250"/>
<rect class="c" x="110" y="270" width="40" height="40" opacity="0.444" style="--a:0.444;--b:0.556;--d:250"/>
<rect class="c" x="150" y="270" width="40" height="40" opacity="0.444" style="--a:0.444;--b:0.556;--d:250"/>
<rect class="c" x="190" y="270" width="40" height="40" opacity="0.444" style="--a:0.444;--b:0.556;--d:250"/>
<rect class="c" x="230" y="270" width="40" height="40" opacity="0.444" style="--a:0.444;--b:0.556;--d:250"/>
<rect class="c" x="270" y="270" width="40" height="40" opacity="0.444" style="--a:0.444;--b:0.556;--d:250"/>
<rect class="c" x="310" y="270" width="40" height="40" opacity="0.222" style="--a:0.222;--b:0.778;--d:350"/>
<rect class="c" x="350" y="270" width="40" height="40" opacity="0.000" style="--a:0.000;--b:1.000;--d:450"/>
<rect class="c" x="-10" y="310" width="40" height="40" opacity="0.000" style="--a:0.000;--b:1.000;--d:450"/>
<rect class="c" x="30" y="310" width="40" height="40" opacity="0.222" style="--a:0.222;--b:0.778;--d:350"/>
<rect class="c" x="70" y="310" width="40" height="40" opacity="0.222" style="--a:0.222;--b:0.778;--d:350"/>
<rect class="c" x="110" y="310" width="40" height="40" opacity="0.222" style="--a:0.222;--b:0.778;--d:350"/>
<rect class="c" x="150" y="310" width="40" height="40" opacity="0.222" style="--a:0.222;--b:0.778;--d:350"/>
<rect class="c" x="190" y="310" width="40" height="40" opacity="0.222" style="--a:0.222;--b:0.778;--d:350"/>
<rect class="c" x="230" y="310" width="40" height="40" opacity="0.222" style="--a:0.222;--b:0.778;--d:350"/>
<rect class="c" x="270" y="310" width="40" height="40" opacity="0.222" style="--a:0.222;--b:0.778;--d:350"/>
<rect class="c" x="310" y="310" width="40" height="40" opacity="0.222" style="--a:0.222;--b:0.778;--d:350"/>
<rect class="c" x="350" y="310" width="40" height="40" opacity="0.000" style="--a:0.000;--b:1.000;--d:450"/>
<rect class="c" x="-10" y="350" width="40" height="40" opacity="0.000" style="--a:0.000;--b:1.000;--d:450"/>
<rect class="c" x="30" y="350" width="40" height="40" opacity="0.000" style="--a:0.000;--b:1.000;--d:450"/>
<rect class="c" x="70" y="350" width="40" height="40" opacity="0.000" style="--a:0.000;--b:1.000;--d:450"/>
<rect class="c" x="110" y="350" width="40" height="40" opacity="0.000" style="--a:0.000;--b:1.000;--d:450"/>
<rect class="c" x="150" y="350" width="40" height="40" opacity="0.000" style="--a:0.000;--b:1.000;--d:450"/>
<rect class="c" x="190" y="350" width="40" height="40" opacity="0.000" style="--a:0.000;--b:1.000;--d:450"/>
<rect class="c" x="230" y="350" width="40" height="40" opacity="0.000" style="--a:0.000;--b:1.000;--d:450"/>
<rect class="c" x="270" y="350" width="40" height="40" opacity="0.000" style="--a:0.000;--b:1.000;--d:450"/>
<rect class="c" x="310" y="350" width="40" height="40" opacity="0.000" style="--a:0.000;--b:1.000;--d:450"/>
<rect class="c" x="350" y="350" width="40" height="40" opacity="0.000" style="--a:0.000;--b:1.000;--d:450"/>
</svg>
