<svg xmlns="http://www.w3.org/2000/svg" viewBox="0 0 132 132" role="img">
<title>0.protocol Identity Mark</title>
<style>
@media(prefers-color-scheme:light){:root{--off:#fff;--on:#1f2328;--bg:#f6f8fa;--bd:#d1d9e0}}
@media(prefers-color-scheme:dark){:root{--off:#0d1117;--on:#e6edf3;--bg:#161b22;--bd:#30363d}}
.c{fill:var(--on,#1f2328);shape-rendering:crispEdges}
@keyframes t{0%,100%{opacity:var(--a)}50%{opacity:var(--b)}}
.c{animation:t 8.5s ease-in-out infinite;animation-delay:calc(var(--d,0)*1ms)}
@media(prefers-reduced-motion:reduce){.c{animation:none}}
</style>
<rect width="132" height="132" rx="12" ry="12" fill="var(--bg,#f6f8fa)" stroke="#838383" stroke-width="1"/>
<rect x="16" y="16" width="100" height="100" fill="var(--off,#fff)" rx="4" ry="4"/>
<rect class="c" x="16" y="16" width="10" height="10" opacity="0.000" style="--a:0.000;--b:1.000;--d:450"/>
<rect class="c" x="26" y="16" width="10" height="10" opacity="0.000" style="--a:0.000;--b:1.000;--d:450"/>
<rect class="c" x="36" y="16" width="10" height="10" opacity="0.000" style="--a:0.000;--b:1.000;--d:450"/>
<rect class="c" x="46" y="16" width="10" height="10" opacity="0.000" style="--a:0.000;--b:1.000;--d:450"/>
<rect class="c" x="56" y="16" width="10" height="10" opacity="0.000" style="--a:0.000;--b:1.000;--d:450"/>
<rect class="c" x="66" y="16" width="10" height="10" opacity="0.000" style="--a:0.000;--b:1.000;--d:450"/>
<rect class="c" x="76" y="16" width="10" height="10" opacity="0.000" style="--a:0.000;--b:1.000;--d:450"/>
<rect class="c" x="86" y="16" width="10" height="10" opacity="0.000" style="--a:0.000;--b:1.000;--d:450"/>
<rect class="c" x="96" y="16" width="10" height="10" opacity="0.000" style="--a:0.000;--b:1.000;--d:450"/>
<rect class="c" x="106" y="16" width="10" height="10" opacity="0.000" style="--a:0.000;--b:1.000;--d:450"/>
<rect class="c" x="16" y="26" width="10" height="10" opacity="0.000" style="--a:0.000;--b:1.000;--d:450"/>
<rect class="c" x="26" y="26" width="10" height="10" opacity="0.222" style="--a:0.222;--b:0.778;--d:350"/>
<rect class="c" x="36" y="26" width="10" height="10" opacity="0.222" style="--a:0.222;--b:0.778;--d:350"/>
<rect class="c" x="46" y="26" width="10" height="10" opacity="0.222" style="--a:0.222;--b:0.778;--d:350"/>
<rect class="c" x="56" y="26" width="10" height="10" opacity="0.222" style="--a:0.222;--b:0.778;--d:350"/>
<rect class="c" x="66" y="26" width="10" height="10" opacity="0.222" style="--a:0.222;--b:0.778;--d:350"/>
<rect class="c" x="76" y="26" width="10" height="10" opacity="0.222" style="--a:0.222;--b:0.778;--d:350"/>
<rect class="c" x="86" y="26" width="10" height="10" opacity="0.222" style="--a:0.222;--b:0.778;--d:350"/>
<rect class="c" x="96" y="26" width="10" height="10" opacity="0.222" style="--a:0.222;--b:0.778;--d:350"/>
<rect class="c" x="106" y="26" width="10" height="10" opacity="0.000" style="--a:0.000;--b:1.000;--d:450"/>
<rect class="c" x="16" y="36" width="10" height="10" opacity="0.000" style="--a:0.000;--b:1.000;--d:450"/>
<rect class="c" x="26" y="36" width="10" height="10" opacity="0.222" style="--a:0.222;--b:0.778;--d:350"/>
<rect class="c" x="36" y="36" width="10" height="10" opacity="0.444" style="--a:0.444;--b:0.556;--d:250"/>
<rect class="c" x="46" y="36" width="10" height="10" opacity="0.444" style="--a:0.444;--b:0.556;--d:250"/>
<rect class="c" x="56" y="36" width="10" height="10" opacity="0.444" style="--a:0.444;--b:0.556;--d:250"/>
<rect class="c" x="66" y="36" width="10" height="10" opacity="0.444" style="--a:0.444;--b:0.556;--d:250"/>
<rect class="c" x="76" y="36" width="10" height="10" opacity="0.444" style="--a:0.444;--b:0.556;--d:250"/>
<rect class="c" x="86" y="36" width="10" height="10" opacity="0.444" style="--a:0.444;--b:0.556;--d:250"/>
<rect class="c" x="96" y="36" width="10" height="10" opacity="0.222" style="--a:0.222;--b:0.778;--d:350"/>
<rect class="c" x="106" y="36" width="10" height="10" opacity="0.000" style="--a:0.000;--b:1.000;--d:450"/>
<rect class="c" x="16" y="46" width="10" height="10" opacity="0.000" style="--a:0.000;--b:1.000;--d:450"/>
<rect class="c" x="26" y="46" width="10" height="10" opacity="0.222" style="--a:0.222;--b:0.778;--d:350"/>
<rect class="c" x="36" y="46" width="10" height="10" opacity="0.444" style="--a:0.444;--b:0.556;--d:250"/>
<rect class="c" x="46" y="46" width="10" height="10" opacity="0.667" style="--a:0.667;--b:0.333;--d:150"/>
<rect class="c" x="56" y="46" width="10" height="10" opacity="0.667" style="--a:0.667;--b:0.333;--d:150"/>
<rect class="c" x="66" y="46" width="10" height="10" opacity="0.667" style="--a:0.667;--b:0.333;--d:150"/>
<rect class="c" x="76" y="46" width="10" height="10" opacity="0.667" style="--a:0.667;--b:0.333;--d:150"/>
<rect class="c" x="86" y="46" width="10" height="10" opacity="0.444" style="--a:0.444;--b:0.556;--d:250"/>
<rect class="c" x="96" y="46" width="10" height="10" opacity="0.222" style="--a:0.222;--b:0.778;--d:350"/>
<rect class="c" x="106" y="46" width="10" height="10" opacity="0.000" style="--a:0.000;--b:1.000;--d:450"/>
<rect class="c" x="16" y="56" width="10" height="10" opacity="0.000" style="--a:0.000;--b:1.000;--d:450"/>
<rect class="c" x="26" y="56" width="10" height="10" opacity="0.222" style="--a:0.222;--b:0.778;--d:350"/>
<rect class="c" x="36" y="56" width="10" height="10" opacity="0.444" style="--a:0.444;--b:0.556;--d:250"/>
<rect class="c" x="46" y="56" width="10" height="10" opacity="0.667" style="--a:0.667;--b:0.333;--d:150"/>
<rect class="c" x="56" y="56" width="10" height="10" opacity="0.889" style="--a:0.889;--b:0.111;--d:50"/>
<rect class="c" x="66" y="56" width="10" height="10" opacity="0.889" style="--a:0.889;--b:0.111;--d:50"/>
<rect class="c" x="76" y="56" width="10" height="10" opacity="0.667" style="--a:0.667;--b:0.333;--d:150"/>
<rect class="c" x="86" y="56" width="10" height="10" opacity="0.444" style="--a:0.444;--b:0.556;--d:250"/>
<rect class="c" x="96" y="56" width="10" height="10" opacity="0.222" style="--a:0.222;--b:0.778;--d:350"/>
<rect class="c" x="106" y="56" width="10" height="10" opacity="0.000" style="--a:0.000;--b:1.000;--d:450"/>
<rect class="c" x="16" y="66" width="10" height="10" opacity="0.000" style="--a:0.000;--b:1.000;--d:450"/>
<rect class="c" x="26" y="66" width="10" height="10" opacity="0.222" style="--a:0.222;--b:0.778;--d:350"/>
<rect class="c" x="36" y="66" width="10" height="10" opacity="0.444" style="--a:0.444;--b:0.556;--d:250"/>
<rect class="c" x="46" y="66" width="10" height="10" opacity="0.667" style="--a:0.667;--b:0.333;--d:150"/>
<rect class="c" x="56" y="66" width="10" height="10" opacity="0.889" style="--a:0.889;--b:0.111;--d:50"/>
<rect class="c" x="66" y="66" width="10" height="10" opacity="0.889" style="--a:0.889;--b:0.111;--d:50"/>
<rect class="c" x="76" y="66" width="10" height="10" opacity="0.667" style="--a:0.667;--b:0.333;--d:150"/>
<rect class="c" x="86" y="66" width="10" height="10" opacity="0.444" style="--a:0.444;--b:0.556;--d:250"/>
<rect class="c" x="96" y="66" width="10" height="10" opacity="0.222" style="--a:0.222;--b:0.778;--d:350"/>
<rect class="c" x="106" y="66" width="10" height="10" opacity="0.000" style="--a:0.000;--b:1.000;--d:450"/>
<rect class="c" x="16" y="76" width="10" height="10" opacity="0.000" style="--a:0.000;--b:1.000;--d:450"/>
<rect class="c" x="26" y="76" width="10" height="10" opacity="0.222" style="--a:0.222;--b:0.778;--d:350"/>
<rect class="c" x="36" y="76" width="10" height="10" opacity="0.444" style="--a:0.444;--b:0.556;--d:250"/>
<rect class="c" x="46" y="76" width="10" height="10" opacity="0.667" style="--a:0.667;--b:0.333;--d:150"/>
<rect class="c" x="56" y="76" width="10" height="10" opacity="0.667" style="--a:0.667;--b:0.333;--d:150"/>
<rect class="c" x="66" y="76" width="10" height="10" opacity="0.667" style="--a:0.667;--b:0.333;--d:150"/>
<rect class="c" x="76" y="76" width="10" height="10" opacity="0.667" style="--a:0.667;--b:0.333;--d:150"/>
<rect class="c" x="86" y="76" width="10" height="10" opacity="0.444" style="--a:0.444;--b:0.556;--d:250"/>
<rect class="c" x="96" y="76" width="10" height="10" opacity="0.222" style="--a:0.222;--b:0.778;--d:350"/>
<rect class="c" x="106" y="76" width="10" height="10" opacity="0.000" style="--a:0.000;--b:1.000;--d:450"/>
<rect class="c" x="16" y="86" width="10" height="10" opacity="0.000" style="--a:0.000;--b:1.000;--d:450"/>
<rect class="c" x="26" y="86" width="10" height="10" opacity="0.222" style="--a:0.222;--b:0.778;--d:350"/>
<rect class="c" x="36" y="86" width="10" height="10" opacity="0.444" style="--a:0.444;--b:0.556;--d:250"/>
<rect class="c" x="46" y="86" width="10" height="10" opacity="0.444" style="--a:0.444;--b:0.556;--d:250"/>
<rect class="c" x="56" y="86" width="10" height="10" opacity="0.444" style="--a:0.444;--b:0.556;--d:250"/>
<rect class="c" x="66" y="86" width="10" height="10" opacity="0.444" style="--a:0.444;--b:0.556;--d:250"/>
<rect class="c" x="76" y="86" width="10" height="10" opacity="0.444" style="--a:0.444;--b:0.556;--d:250"/>
<rect class="c" x="86" y="86" width="10" height="10" opacity="0.444" style="--a:0.444;--b:0.556;--d:250"/>
<rect class="c" x="96" y="86" width="10" height="10" opacity="0.222" style="--a:0.222;--b:0.778;--d:350"/>
<rect class="c" x="106" y="86" width="10" height="10" opacity="0.000" style="--a:0.000;--b:1.000;--d:450"/>
<rect class="c" x="16" y="96" width="10" height="10" opacity="0.000" style="--a:0.000;--b:1.000;--d:450"/>
<rect class="c" x="26" y="96" width="10" height="10" opacity="0.222" style="--a:0.222;--b:0.778;--d:350"/>
<rect class="c" x="36" y="96" width="10" height="10" opacity="0.222" style="--a:0.222;--b:0.778;--d:350"/>
<rect class="c" x="46" y="96" width="10" height="10" opacity="0.222" style="--a:0.222;--b:0.778;--d:350"/>
<rect class="c" x="56" y="96" width="10" height="10" opacity="0.222" style="--a:0.222;--b:0.778;--d:350"/>
<rect class="c" x="66" y="96" width="10" height="10" opacity="0.222" style="--a:0.222;--b:0.778;--d:350"/>
<rect class="c" x="76" y="96" width="10" height="10" opacity="0.222" style="--a:0.222;--b:0.778;--d:350"/>
<rect class="c" x="86" y="96" width="10" height="10" opacity="0.222" style="--a:0.222;--b:0.778;--d:350"/>
<rect class="c" x="96" y="96" width="10" height="10" opacity="0.222" style="--a:0.222;--b:0.778;--d:350"/>
<rect class="c" x="106" y="96" width="10" height="10" opacity="0.000" style="--a:0.000;--b:1.000;--d:450"/>
<rect class="c" x="16" y="106" width="10" height="10" opacity="0.000" style="--a:0.000;--b:1.000;--d:450"/>
<rect class="c" x="26" y="106" width="10" height="10" opacity="0.000" style="--a:0.000;--b:1.000;--d:450"/>
<rect class="c" x="36" y="106" width="10" height="10" opacity="0.000" style="--a:0.000;--b:1.000;--d:450"/>
<rect class="c" x="46" y="106" width="10" height="10" opacity="0.000" style="--a:0.000;--b:1.000;--d:450"/>
<rect class="c" x="56" y="106" width="10" height="10" opacity="0.000" style="--a:0.000;--b:1.000;--d:450"/>
<rect class="c" x="66" y="106" width="10" height="10" opacity="0.000" style="--a:0.000;--b:1.000;--d:450"/>
<rect class="c" x="76" y="106" width="10" height="10" opacity="0.000" style="--a:0.000;--b:1.000;--d:450"/>
<rect class="c" x="86" y="106" width="10" height="10" opacity="0.000" style="--a:0.000;--b:1.000;--d:450"/>
<rect class="c" x="96" y="106" width="10" height="10" opacity="0.000" style="--a:0.000;--b:1.000;--d:450"/>
<rect class="c" x="106" y="106" width="10" height="10" opacity="0.000" style="--a:0.000;--b:1.000;--d:450"/>
</svg>
